<svg width="21" height="21" viewBox="0 0 21 21" fill="none" xmlns="http://www.w3.org/2000/svg">
<g clip-path="url(#clip0_96_196)">
<path d="M11.1679 20.9371H10.0891C9.80929 20.9053 9.52849 20.8803 9.24963 20.8392C7.86008 20.6504 6.52791 20.1565 5.34601 19.392C5.29299 19.3526 5.23112 19.3273 5.16601 19.3182C5.1009 19.3092 5.03459 19.3167 4.97307 19.3402C3.84651 19.7124 2.71706 20.0738 1.58858 20.4416C1.52683 20.4617 1.46411 20.4802 1.3763 20.5071C1.77047 19.3182 2.14824 18.1668 2.53421 17.0184C2.58632 16.8639 2.58246 16.7485 2.48259 16.6081C1.66361 15.4301 1.11575 14.0808 0.879359 12.6596C0.808919 12.2454 0.775146 11.8243 0.724487 11.4066V10.3521C0.736549 10.2826 0.750058 10.2137 0.76019 10.1447C0.823393 9.70796 0.86006 9.26435 0.953176 8.83493C1.47327 6.41881 2.70549 4.44483 4.65368 2.96581C7.04525 1.15078 9.73451 0.551156 12.6626 1.17084C15.0218 1.6702 16.9406 2.92228 18.4078 4.85566C19.9912 6.9436 20.6503 9.3206 20.4028 11.9372C20.2025 14.0496 19.3959 15.917 18.0097 17.5129C16.4808 19.2736 14.5731 20.3687 12.2911 20.7796C11.9186 20.849 11.5423 20.8862 11.1679 20.9371ZM13.7689 16.5729C14.0887 16.5108 14.3691 16.4907 14.6257 16.4017C16.0205 15.917 16.4938 15.2347 16.5344 13.9288C16.5406 13.721 16.4629 13.5835 16.2782 13.4945C15.5492 13.1429 14.825 12.7809 14.0931 12.4347C13.7047 12.2512 13.4833 12.3222 13.229 12.6694C13.036 12.9306 12.8503 13.1942 12.6524 13.452C12.3581 13.834 12.141 13.8877 11.6991 13.7053C10.0886 13.0401 8.88296 11.903 7.97689 10.4186C7.75592 10.0572 7.76702 9.95006 8.04974 9.62628C8.22825 9.42184 8.41448 9.22327 8.58045 9.00954C8.73725 8.80852 8.88296 8.58891 8.77006 8.31404C8.43233 7.4865 8.08689 6.66042 7.73324 5.83923C7.68886 5.73652 7.58464 5.61425 7.4867 5.58979C6.96902 5.45921 6.42818 5.43035 5.99589 5.78543C5.03096 6.57923 4.7299 7.64741 4.91517 8.86134C5.04544 9.71138 5.44009 10.4563 5.91677 11.1601C6.68244 12.2918 7.5475 13.3326 8.579 14.2282C9.7263 15.2249 11.0584 15.8578 12.4932 16.2853C12.9217 16.4124 13.3655 16.4834 13.7689 16.5729Z" fill="white"/>
<path d="M13.769 16.573C13.3657 16.4835 12.9218 16.4126 12.4943 16.285C11.0595 15.8575 9.72739 15.2246 8.58009 14.2278C7.54858 13.3323 6.68353 12.29 5.92027 11.1598C5.44359 10.4559 5.04894 9.71106 4.91867 8.86102C4.73341 7.64709 5.03639 6.57891 5.99939 5.78511C6.43361 5.42856 6.97252 5.45741 7.49021 5.58947C7.5867 5.61392 7.69236 5.7362 7.73674 5.83891C8.09039 6.66009 8.43342 7.48617 8.77356 8.31372C8.88646 8.58859 8.74075 8.80819 8.58395 9.00921C8.41702 9.22295 8.23079 9.42152 8.05324 9.62596C7.77052 9.94974 7.75942 10.0568 7.98039 10.4183C8.88646 11.9027 10.0921 13.0398 11.7026 13.705C12.1445 13.8874 12.3616 13.8336 12.6559 13.4516C12.8538 13.1958 13.0419 12.9322 13.2325 12.6691C13.4868 12.3218 13.7082 12.2509 14.0966 12.4343C14.8285 12.7806 15.5527 13.1425 16.2817 13.4942C16.4665 13.5832 16.5441 13.7206 16.5379 13.9285C16.4973 15.2344 16.024 15.9167 14.6292 16.4014C14.3692 16.4909 14.0889 16.5109 13.769 16.573Z" fill="#2F383B"/>
</g>
<defs>
<clipPath id="clip0_96_196">
<rect width="19.726" height="20" fill="white" transform="translate(0.726074 0.9375)"/>
</clipPath>
</defs>
</svg>
