<?xml version="1.0" encoding="UTF-8" standalone="no"?>
<!DOCTYPE svg PUBLIC "-//W3C//DTD SVG 1.1//EN" "http://www.w3.org/Graphics/SVG/1.1/DTD/svg11.dtd">
<svg width="100%" height="100%" viewBox="0 0 36 42" version="1.1" xmlns="http://www.w3.org/2000/svg" xmlns:xlink="http://www.w3.org/1999/xlink" xml:space="preserve" xmlns:serif="http://www.serif.com/" style="fill-rule:evenodd;clip-rule:evenodd;stroke-linejoin:round;stroke-miterlimit:2;">
    <g transform="matrix(1,0,0,1,-13.15,-9.99932)">
        <path d="M15.81,27.47C15.81,39.29 25.43,48.92 37.25,48.92L37.25,51.58C23.96,51.58 13.15,40.77 13.15,27.48L15.81,27.48L15.81,27.47Z" style="fill:rgb(248,248,248);fill-rule:nonzero;"/>
        <path d="M37.11,10.01C27.52,10.09 19.74,17.99 19.79,27.57C19.85,37.15 27.66,44.93 37.25,44.93L37.25,42.27C29.09,42.27 22.44,35.63 22.44,27.46C22.44,19.29 29.08,12.65 37.25,12.65C38.36,12.65 39.44,12.77 40.48,13.01L40.48,10.3C39.39,10.09 38.26,9.99 37.11,10L37.11,10.01Z" style="fill:rgb(248,248,248);fill-rule:nonzero;"/>
        <path d="M37.1,16.31C31.09,16.39 26.18,21.3 26.1,27.31C26.02,33.32 31.04,38.63 37.26,38.63L37.26,30.31L34.22,30.31C34.12,30.26 34.08,30.18 34.08,30.07C34.1,29.29 34.4,28.65 34.97,28.13C35.36,27.77 35.83,27.56 36.36,27.49C36.42,27.49 36.48,27.47 36.54,27.47C36.87,27.47 37.19,27.46 37.52,27.47L48.43,27.47C48.43,21.25 43.35,16.22 37.11,16.31L37.1,16.31ZM37.07,27.08C36.09,27.08 35.26,26.25 35.27,25.26C35.26,24.27 36.1,23.45 37.09,23.45C38.07,23.45 38.9,24.28 38.89,25.27C38.89,26.25 38.06,27.08 37.06,27.07L37.07,27.08Z" style="fill:rgb(77,185,97);fill-rule:nonzero;"/>
    </g>
</svg>
