<?xml version="1.0" encoding="UTF-8"?>
<svg id="Layer_1" data-name="Layer 1" xmlns="http://www.w3.org/2000/svg" viewBox="0 0 61.58 61.58">
  <defs>
    <style>
      .cls-1 {
        fill: #4db961;
      }

      .cls-2 {
        fill: #f8f8f8;
      }
    </style>
  </defs>
  <rect class="cls-1" width="61.58" height="61.58" rx="13.76" ry="13.76"/>
  <g>
    <path class="cls-2" d="m15.81,27.47c0,11.82,9.62,21.45,21.44,21.45v2.66c-13.29,0-24.1-10.81-24.1-24.1h2.66Z"/>
    <path class="cls-2" d="m37.11,10.01c-9.59.08-17.37,7.98-17.32,17.56.06,9.58,7.87,17.36,17.46,17.36v-2.66c-8.16,0-14.81-6.64-14.81-14.81s6.64-14.81,14.81-14.81c1.11,0,2.19.12,3.23.36v-2.71c-1.09-.21-2.22-.31-3.37-.3Z"/>
    <path class="cls-2" d="m37.1,16.31c-6.01.08-10.92,4.99-11,11s4.94,11.32,11.16,11.32v-8.32h-3.04c-.1-.05-.14-.13-.14-.24.02-.78.32-1.42.89-1.94.39-.36.86-.57,1.39-.64.06,0,.12-.02.18-.02.33,0,.65-.01.98,0h10.91c0-6.22-5.08-11.25-11.32-11.16Zm-.03,10.77c-.98,0-1.81-.83-1.8-1.82-.01-.99.83-1.81,1.82-1.81.98,0,1.81.83,1.8,1.82,0,.98-.83,1.81-1.83,1.8Z"/>
  </g>
</svg>