<svg width="21" height="21" viewBox="0 0 21 21" fill="none" xmlns="http://www.w3.org/2000/svg">
<g clip-path="url(#clip0_96_200)">
<path d="M10.9315 20.9373H9.6986C9.65714 20.9228 9.61451 20.912 9.57121 20.9049C8.73771 20.8529 7.91575 20.6806 7.13011 20.3931C3.54792 19.0478 1.37326 16.4764 0.606136 12.6787C0.53165 12.3135 0.503396 11.9348 0.452026 11.5628V10.3107C0.463328 10.2544 0.476169 10.198 0.486443 10.1412C0.598943 9.50259 0.660074 8.84942 0.830622 8.22703C2.55408 1.94573 9.67291 -0.993031 15.2584 2.29474C17.8911 3.8442 19.4707 6.18978 20.0296 9.23339C20.0948 9.59023 20.1293 9.9523 20.1781 10.3123V11.5242C20.1673 11.5868 20.1539 11.6489 20.1452 11.712C20.0938 12.1043 20.0578 12.5008 19.9839 12.889C19.2133 16.9149 16.0032 20.0952 12.0133 20.7834C11.6543 20.846 11.2911 20.8867 10.9315 20.9373ZM8.81247 9.18383V16.1934H10.9366V15.955C10.9366 14.8594 10.9335 13.768 10.9366 12.6751C10.9366 12.2838 10.9685 11.8925 11.1457 11.5346C11.3769 11.0651 11.8315 10.8564 12.4525 10.9368C12.8861 10.9889 13.181 11.2826 13.2745 11.7913C13.3228 12.0533 13.3479 12.3193 13.3495 12.5859C13.3577 13.7179 13.3536 14.8506 13.3541 15.9827V16.1913H15.4962C15.4998 16.1272 15.506 16.0766 15.506 16.0254C15.506 14.7734 15.5193 13.5265 15.4983 12.277C15.4918 11.7766 15.4416 11.2778 15.3483 10.7865C15.1875 9.96378 14.7359 9.35182 13.9017 9.13166C13.5543 9.04028 13.1961 8.99814 12.8373 9.00645C12.0339 9.02628 11.3743 9.35599 10.9274 10.0608C10.9027 10.0868 10.8755 10.1103 10.8462 10.1307V9.18488L8.81247 9.18383ZM7.43473 16.1924V9.19009H5.30905V16.1924H7.43473ZM6.36264 8.21033C6.61 8.21033 6.85178 8.13575 7.05736 7.99606C7.26294 7.85636 7.42306 7.65784 7.51744 7.42564C7.61181 7.19343 7.63619 6.938 7.58748 6.69171C7.53878 6.44542 7.41917 6.21936 7.24384 6.04217C7.0685 5.86498 6.84532 5.74464 6.60257 5.69639C6.35982 5.64814 6.10844 5.67416 5.88026 5.77115C5.65209 5.86814 5.45741 6.03174 5.32087 6.24121C5.18434 6.45069 5.11211 6.69661 5.11333 6.94781C5.11536 7.2832 5.2478 7.60418 5.4818 7.84085C5.7158 8.07752 6.0324 8.21069 6.36264 8.21138V8.21033Z" fill="white"/>
</g>
<defs>
<clipPath id="clip0_96_200">
<rect width="19.726" height="20" fill="white" transform="translate(0.452026 0.9375)"/>
</clipPath>
</defs>
</svg>
