<svg width="18" height="18" viewBox="0 0 18 18" fill="none" xmlns="http://www.w3.org/2000/svg">
<path d="M16.1951 9.91828C15.9858 9.75724 15.7421 9.64662 15.4831 9.59504C15.2241 9.54346 14.9567 9.55229 14.7016 9.62086L11.7598 10.2973C11.8282 10.0081 11.8303 9.70726 11.7659 9.4172C11.7016 9.12714 11.5724 8.85541 11.3881 8.62237C11.2037 8.38934 10.969 8.20105 10.7016 8.07162C10.4341 7.94219 10.1409 7.87497 9.84375 7.875H6.32391C6.02831 7.87426 5.7355 7.9321 5.46239 8.04518C5.18928 8.15827 4.94129 8.32435 4.73273 8.53383L3.14227 10.125H1.125C0.826631 10.125 0.540483 10.2435 0.329505 10.4545C0.118526 10.6655 0 10.9516 0 11.25L0 14.0625C0 14.3609 0.118526 14.647 0.329505 14.858C0.540483 15.069 0.826631 15.1875 1.125 15.1875H8.4375C8.48349 15.1875 8.52931 15.1819 8.57391 15.1706L13.0739 14.0456C13.1026 14.0388 13.1306 14.0294 13.1576 14.0175L15.8906 12.8545L15.9216 12.8405C16.1842 12.7092 16.4092 12.5133 16.5752 12.2711C16.7412 12.0288 16.8428 11.7484 16.8704 11.456C16.8981 11.1637 16.8508 10.8692 16.7332 10.6001C16.6155 10.3311 16.4313 10.0964 16.1979 9.91828H16.1951ZM1.125 11.25H2.8125V14.0625H1.125V11.25ZM15.4287 11.8273L12.7568 12.9649L8.36719 14.0625H3.9375V10.9202L5.52867 9.32977C5.63276 9.22485 5.75666 9.14166 5.89318 9.08505C6.0297 9.02844 6.17612 8.99953 6.32391 9H9.84375C10.0675 9 10.2821 9.0889 10.4404 9.24713C10.5986 9.40536 10.6875 9.61997 10.6875 9.84375C10.6875 10.0675 10.5986 10.2821 10.4404 10.4404C10.2821 10.5986 10.0675 10.6875 9.84375 10.6875H7.875C7.72582 10.6875 7.58274 10.7468 7.47725 10.8523C7.37176 10.9577 7.3125 11.1008 7.3125 11.25C7.3125 11.3992 7.37176 11.5423 7.47725 11.6477C7.58274 11.7532 7.72582 11.8125 7.875 11.8125H10.125C10.1673 11.8124 10.2095 11.8077 10.2509 11.7984L14.9618 10.7149L14.9836 10.7093C15.1274 10.6694 15.2809 10.684 15.4145 10.7505C15.5482 10.8169 15.6525 10.9305 15.7075 11.0692C15.7625 11.208 15.7642 11.3621 15.7123 11.5021C15.6605 11.642 15.5587 11.7579 15.4266 11.8273H15.4287ZM11.5312 6.75C11.6702 6.75016 11.809 6.73887 11.9461 6.71625C12.1003 7.17437 12.3825 7.57874 12.7593 7.88157C13.136 8.1844 13.5916 8.37301 14.0722 8.42511C14.5528 8.47721 15.0382 8.39062 15.4711 8.17558C15.904 7.96053 16.2663 7.62602 16.5152 7.2116C16.764 6.79718 16.889 6.32018 16.8753 5.83699C16.8616 5.3538 16.7099 4.88463 16.438 4.48495C16.1661 4.08527 15.7855 3.77179 15.3411 3.58158C14.8967 3.39136 14.4072 3.33236 13.9303 3.41156C13.7818 2.97017 13.5144 2.57831 13.1575 2.27909C12.8007 1.97988 12.3682 1.78491 11.9077 1.71565C11.4471 1.64639 10.9764 1.70552 10.5474 1.88653C10.1183 2.06754 9.74744 2.36342 9.47567 2.7416C9.2039 3.11978 9.04173 3.56561 9.00701 4.03001C8.97229 4.49442 9.06635 4.95941 9.27886 5.3738C9.49137 5.78819 9.81408 6.13592 10.2115 6.37873C10.6089 6.62154 11.0655 6.75001 11.5312 6.75ZM15.75 5.90625C15.75 6.18438 15.6675 6.45626 15.513 6.68752C15.3585 6.91878 15.1389 7.09902 14.8819 7.20546C14.6249 7.31189 14.3422 7.33974 14.0694 7.28548C13.7966 7.23122 13.546 7.09729 13.3494 6.90062C13.1527 6.70395 13.0188 6.45338 12.9645 6.1806C12.9103 5.90781 12.9381 5.62506 13.0445 5.3681C13.151 5.11114 13.3312 4.89152 13.5625 4.737C13.7937 4.58248 14.0656 4.5 14.3438 4.5C14.7167 4.5 15.0744 4.64816 15.3381 4.91188C15.6018 5.17561 15.75 5.53329 15.75 5.90625ZM11.5312 2.8125C11.838 2.81265 12.1363 2.91312 12.3807 3.09859C12.6251 3.28405 12.8021 3.54434 12.8848 3.83977C12.5967 4.04247 12.3541 4.30308 12.1725 4.60492C11.9908 4.90675 11.8742 5.24317 11.8301 5.59266C11.7319 5.61386 11.6317 5.6247 11.5312 5.625C11.1583 5.625 10.8006 5.47684 10.5369 5.21312C10.2732 4.9494 10.125 4.59171 10.125 4.21875C10.125 3.84579 10.2732 3.48811 10.5369 3.22438C10.8006 2.96066 11.1583 2.8125 11.5312 2.8125Z" fill="#61B347"/>
</svg>
