<svg width="18" height="18" viewBox="0 0 18 18" fill="none" xmlns="http://www.w3.org/2000/svg">
<g opacity="0.8">
<path d="M10.125 5.625C10.125 5.47582 10.1843 5.33274 10.2898 5.22725C10.3952 5.12176 10.5383 5.0625 10.6875 5.0625H17.4375C17.5867 5.0625 17.7298 5.12176 17.8352 5.22725C17.9407 5.33274 18 5.47582 18 5.625C18 5.77418 17.9407 5.91726 17.8352 6.02275C17.7298 6.12824 17.5867 6.1875 17.4375 6.1875H10.6875C10.5383 6.1875 10.3952 6.12824 10.2898 6.02275C10.1843 5.91726 10.125 5.77418 10.125 5.625ZM17.4375 8.4375H10.6875C10.5383 8.4375 10.3952 8.49676 10.2898 8.60225C10.1843 8.70774 10.125 8.85082 10.125 9C10.125 9.14919 10.1843 9.29226 10.2898 9.39775C10.3952 9.50324 10.5383 9.5625 10.6875 9.5625H17.4375C17.5867 9.5625 17.7298 9.50324 17.8352 9.39775C17.9407 9.29226 18 9.14919 18 9C18 8.85082 17.9407 8.70774 17.8352 8.60225C17.7298 8.49676 17.5867 8.4375 17.4375 8.4375ZM17.4375 11.8125H12.375C12.2258 11.8125 12.0827 11.8718 11.9773 11.9773C11.8718 12.0827 11.8125 12.2258 11.8125 12.375C11.8125 12.5242 11.8718 12.6673 11.9773 12.7727C12.0827 12.8782 12.2258 12.9375 12.375 12.9375H17.4375C17.5867 12.9375 17.7298 12.8782 17.8352 12.7727C17.9407 12.6673 18 12.5242 18 12.375C18 12.2258 17.9407 12.0827 17.8352 11.9773C17.7298 11.8718 17.5867 11.8125 17.4375 11.8125ZM10.6699 13.3594C10.6883 13.4309 10.6924 13.5054 10.682 13.5786C10.6716 13.6517 10.6469 13.7221 10.6093 13.7857C10.5717 13.8493 10.5219 13.9049 10.4628 13.9492C10.4037 13.9936 10.3365 14.0259 10.2649 14.0442C10.2191 14.0566 10.1718 14.0627 10.1243 14.0625C9.99955 14.0626 9.87831 14.0212 9.77967 13.9448C9.68102 13.8684 9.61057 13.7614 9.57938 13.6406C9.14625 11.9573 7.4461 10.6875 5.6243 10.6875C3.8025 10.6875 2.10235 11.9566 1.66922 13.6406C1.63193 13.7851 1.53875 13.9089 1.41018 13.9848C1.28162 14.0606 1.1282 14.0822 0.983675 14.0449C0.839152 14.0076 0.715365 13.9144 0.639545 13.7859C0.563724 13.6573 0.542082 13.5039 0.579378 13.3594C0.972425 11.8329 2.115 10.5968 3.56485 9.98438C3.00659 9.55439 2.59692 8.96045 2.39329 8.28585C2.18966 7.61126 2.20229 6.88984 2.4294 6.22279C2.65652 5.55573 3.08672 4.97649 3.65969 4.56631C4.23266 4.15612 4.91964 3.93556 5.6243 3.93556C6.32896 3.93556 7.01594 4.15612 7.58891 4.56631C8.16188 4.97649 8.59208 5.55573 8.8192 6.22279C9.04631 6.88984 9.05894 7.61126 8.85531 8.28585C8.65168 8.96045 8.24201 9.55439 7.68375 9.98438C9.1343 10.5968 10.2769 11.8329 10.6699 13.3594ZM5.625 9.5625C6.07001 9.5625 6.50502 9.43054 6.87504 9.18331C7.24505 8.93607 7.53343 8.58467 7.70373 8.17354C7.87403 7.7624 7.91859 7.31 7.83177 6.87355C7.74495 6.43709 7.53066 6.03618 7.21599 5.72151C6.90132 5.40684 6.50041 5.19255 6.06396 5.10573C5.6275 5.01892 5.1751 5.06347 4.76396 5.23377C4.35283 5.40407 4.00143 5.69246 3.7542 6.06247C3.50696 6.43248 3.375 6.86749 3.375 7.3125C3.375 7.90924 3.61206 8.48153 4.03401 8.90349C4.45597 9.32545 5.02827 9.5625 5.625 9.5625Z" fill="#61B347"/>
</g>
</svg>
